<svg xmlns="http://www.w3.org/2000/svg" aria-hidden="true" style="width:0;height:0;position:absolute;overflow:hidden"><defs><symbol id="icon-menu" viewBox="0 0 55 32"><path fill="none" stroke="#f3f3f3" style="stroke:var(--color2,#f3f3f3)" stroke-width="1.778" d="M0 1.778h55.111M0 16h55.111M0 30.222h55.111"/></symbol><symbol id="icon-check" viewBox="0 0 42 32"><path fill="#fff" style="fill:var(--color1,#fff);stroke:var(--color1,#fff)" stroke="#fff" stroke-width=".64" d="m6.262 15.206-.221-.211-.221.208-3.085 2.925.243.234 11.408 10.88.221-.211L38.863 5.892l-.243-.23-3.043-2.902-.221.211-20.97 19.987-8.125-7.75z"/></symbol><symbol id="icon-arrow-left" viewBox="0 0 32 32"><path d="M21.353 27.337a.948.948 0 0 0 0-1.324l-9.567-9.906 9.567-9.904a.95.95 0 0 0-.001-1.324.89.89 0 0 0-.992-.2l.006-.002a.897.897 0 0 0-.293.202L9.899 15.415a.994.994 0 0 0 0 1.383l10.174 10.535a.889.889 0 0 0 .993.2l-.006.002a.897.897 0 0 0 .293-.202v.003z"/></symbol><symbol id="icon-rrow-right" viewBox="0 0 32 32"><path d="M10.647 4.663a.948.948 0 0 0 0 1.324l9.567 9.906-9.567 9.904a.95.95 0 0 0 .001 1.324.883.883 0 0 0 1.279 0l10.174-10.536a.994.994 0 0 0 0-1.383L11.927 4.666a.89.89 0 0 0-.993-.199l.006-.002a.894.894 0 0 0-.293.201v-.002z"/></symbol><symbol id="icon-arrow-down" viewBox="0 0 32 32"><path d="M27.334 10.652a.954.954 0 0 0-1.336 0L16 20.398l-9.996-9.746a.954.954 0 0 0-1.336 0c-.17.165-.275.396-.275.652s.105.487.275.652L15.302 22.32c.18.176.426.284.698.284s.518-.108.698-.284l10.634-10.364a.908.908 0 0 0 0-1.304h.002z"/></symbol><symbol id="icon-location" viewBox="0 0 32 32"><path d="M25 13c0-4.971-4.029-9-9-9s-9 4.029-9 9c0 3.692 2.953 8.504 9 14.268 6.047-5.764 9-10.576 9-14.268zm-9 17C8.667 23.333 5 17.667 5 13 5 6.925 9.925 2 16 2s11 4.925 11 11c0 4.667-3.667 10.333-11 17z"/><path d="M16 16a3 3 0 1 0 0-6 3 3 0 1 0 0 6zm0 2a5 5 0 0 1 0-10 5 5 0 0 1 0 10z"/></symbol><symbol id="icon-burger" viewBox="0 0 32 32"><path stroke-width="1.032" d="M0 7.742h32M0 16h32M0 24.258h32"/></symbol><symbol id="icon-close" viewBox="0 0 32 32"><path d="m16 14.115 6.6-6.6L24.485 9.4l-6.6 6.6 6.6 6.6-1.885 1.885-6.6-6.6-6.6 6.6L7.515 22.6l6.6-6.6-6.6-6.6L9.4 7.515l6.6 6.6z"/></symbol><symbol id="icon-instagram" viewBox="0 0 32 32"><path d="M15.969.125c4.312 0 4.843.031 6.531.093 1.656.063 2.813.344 3.844.751a7.644 7.644 0 0 1 2.812 1.811l.001.001a7.627 7.627 0 0 1 1.795 2.761l.017.053c.405 1.031.687 2.187.749 3.843.063 1.688.093 2.219.093 6.532 0 4.312-.031 4.843-.093 6.531-.063 1.656-.344 2.813-.749 3.844a7.647 7.647 0 0 1-1.812 2.812l-.001.001a7.627 7.627 0 0 1-2.761 1.795l-.053.017c-1.031.405-2.187.687-3.843.749-1.688.063-2.219.093-6.531.093-4.313 0-4.844-.031-6.532-.093-1.656-.063-2.813-.344-3.844-.749a7.647 7.647 0 0 1-2.812-1.812l-.001-.001a7.622 7.622 0 0 1-1.793-2.761l-.017-.053C.562 25.312.281 24.156.218 22.5c-.063-1.688-.093-2.219-.093-6.531 0-4.313.031-4.844.093-6.532.063-1.656.344-2.813.751-3.844A7.644 7.644 0 0 1 2.78 2.781l.001-.001A7.62 7.62 0 0 1 5.542.988l.053-.017C6.624.563 7.78.28 9.436.219c1.688-.063 2.219-.093 6.532-.093zm0 2.063c-4.5 0-5.032.031-6.781.093-1.627.063-2.532.375-3.125.593C4.531 3.499 3.5 4.53 2.876 6.061c-.22.595-.533 1.501-.595 3.127-.063 1.749-.093 2.28-.093 6.781 0 4.5.031 5.031.093 6.78.063 1.627.375 2.532.593 3.125.625 1.532 1.656 2.563 3.187 3.187.595.22 1.501.533 3.127.595 1.749.063 2.28.093 6.781.093 4.5 0 5.031-.031 6.78-.093 1.627-.063 2.532-.375 3.125-.593 1.532-.625 2.563-1.656 3.187-3.187.22-.595.533-1.501.595-3.127.063-1.749.093-2.28.093-6.78s-.031-5.032-.093-6.781c-.063-1.627-.375-2.532-.593-3.125-.625-1.532-1.656-2.563-3.187-3.187-.595-.22-1.501-.533-3.127-.595-1.749-.063-2.28-.093-6.78-.093zm0 20.124a6.348 6.348 0 0 0 6.343-6.342 6.348 6.348 0 0 0-6.342-6.344 6.347 6.347 0 0 0-6.344 6.344 6.35 6.35 0 0 0 6.344 6.343zm0-14.468h.015a8.109 8.109 0 0 1 8.109 8.109v.017-.001.015a8.109 8.109 0 0 1-8.109 8.109h-.015.001-.016a8.109 8.109 0 0 1-8.109-8.109v-.015.001-.016a8.109 8.109 0 0 1 8.109-8.109h.017-.001zm10.374-.313c0 1.063-.873 1.876-1.936 1.876s-1.876-.813-1.876-1.876c0-1.061.813-1.937 1.876-1.937a1.946 1.946 0 0 1 1.937 1.937z"/></symbol><symbol id="icon-telegram" viewBox="0 0 32 32"><path d="M16.5 1.992v6.996h7.011v3h-6.979l-.011 8.703c0 1.619.084 2.657.255 3.117.267.727 1.237 1.656 3.037 1.656 1.397 0 3.28-.42 4.693-1.476v4.667c-1.179.56-2.273.787-3.227 1.013-.956.227-1.991.34-3.099.34-1.236 0-4.803-.035-6.267-3.763-.263-.672-.395-1.645-.395-2.921V11.992H7.491l.02-3.067c1.333 0 5.332-.809 5.332-6.933h3.655zm0-2h-3.655a2 2 0 0 0-2 2c0 4.577-2.551 4.933-3.333 4.933a2 2 0 0 0-2 1.99v.001l-.019 3.067v.008a2 2 0 0 0 2 2.001H9.52v9.332c0 1.543.175 2.739.533 3.653.903 2.293 3.044 5.031 8.128 5.031 1.259 0 2.456-.133 3.559-.392l.22-.053c.933-.219 2.127-.493 3.407-1.103a2.002 2.002 0 0 0 1.14-1.805v-4.667a2 2 0 0 0-3.204-1.596l.005-.004c-1.191.891-2.715 1.077-3.493 1.077-.8 0-1.099-.291-1.164-.368-.033-.156-.128-.743-.128-2.405l.007-6.704h4.981a2 2 0 0 0 2-2V8.987a2 2 0 0 0-2-2H18.5V1.992a2 2 0 0 0-2-2z"/></symbol><symbol id="icon-twitter" viewBox="0 0 32 32"><path d="M21.387 4.96c1.653 0 3.145.675 4.196 1.76a11.754 11.754 0 0 0 3.704-1.382l-.056.03a5.656 5.656 0 0 1-2.499 3.068l-.027.014a11.78 11.78 0 0 0 3.376-.91l-.076.03a11.633 11.633 0 0 1-2.831 2.862l-.036.024c.009.24.016.48.016.72 0 7.367-5.783 15.863-16.353 15.863-3.245 0-6.268-.925-8.811-2.507.455.053.913.08 1.371.079 2.693 0 5.172-.891 7.14-2.387-2.517-.044-4.64-1.657-5.369-3.871a5.893 5.893 0 0 0 2.636-.104l-.041.01c-2.629-.511-4.611-2.764-4.611-5.467v-.073a5.77 5.77 0 0 0 2.595.698h.009c-1.543-1.001-2.557-2.707-2.557-4.64 0-1.023.284-1.98.779-2.8 2.832 3.371 7.069 5.591 11.845 5.824a5.285 5.285 0 0 1-.149-1.264v-.006c0-3.08 2.573-5.576 5.748-5.576zm8.618 2.613zM21.387 2.96c-3.927 0-7.18 2.868-7.68 6.575-3.213-.645-6.136-2.347-8.236-4.841a2 2 0 0 0-3.238.246l-.005.009a7.34 7.34 0 0 0-1.066 3.833c0 .934.172 1.828.487 2.651l-.017-.051c-.328.364-.516.84-.516 1.341v.072c0 1.959.775 3.776 2.06 5.139-.073.344-.057.703.056 1.047a7.572 7.572 0 0 0 2.288 3.39l.011.009a10.025 10.025 0 0 1-3.35.165l.047.005a2 2 0 0 0-1.301 3.681l.008.005c2.796 1.762 6.197 2.808 9.842 2.808h.026-.001c11.375 0 18.217-8.905 18.351-17.604a13.439 13.439 0 0 0 2.452-2.661 1.998 1.998 0 0 0-.447-2.842l-.006-.004a2 2 0 0 0-2.929-2.287l.009-.005a9.355 9.355 0 0 1-2.044.883l-.068.017a7.845 7.845 0 0 0-4.732-1.579z"/></symbol><symbol id="icon-simple-line-icons_social-youtubeyoutobe" viewBox="0 0 32 32"><path d="M29.399 5.928c-.867-.624-3.284-1.453-13.407-1.453-10.849 0-12.459.952-12.975 1.264C.266 7.39.006 14.702-.018 16.184c.033 1.959.349 8.472 3.032 10.084.516.311 2.116 1.257 12.977 1.257 10.129 0 12.543-.825 13.407-1.447 2.343-1.685 2.612-7.491 2.619-9.92-.007-1.955-.212-8.496-2.62-10.231zm-1.17 18.528c-.347.251-2.349 1.069-12.237 1.069-9.56 0-11.567-.743-11.947-.971-.964-.579-1.983-3.653-2.063-8.376.08-4.713 1.112-8.153 2.065-8.725.38-.229 2.393-.977 11.944-.977 9.88 0 11.887.824 12.237 1.076.857.616 1.773 3.864 1.787 8.613-.013 4.823-.936 7.679-1.787 8.291zm-5.716-9.243-8.999-5.52a1 1 0 0 0-1.515.853v11.046a1 1 0 0 0 1.52.853l-.004.003 8.997-5.523a1.001 1.001 0 0 0 .004-1.711l-.004-.002zm-8.514 4.608V12.32l6.063 3.751-6.063 3.752z"/></symbol><symbol id="icon-Vector" viewBox="0 0 32 32"><path d="M31.979 15.8c-.647-12.05-6.457-13.811-11.14-13.812-1.184 0-2.295.113-3.233.2-.008-.547.014-1.134.1-1.783.001-.009-.002-.017-.003-.026l.003-.013c0-.202-.354-.366-.793-.366-.437 0-.791.164-.791.366-.12.653-.284 1.297-.49 1.926-6.18.04-14.32 1.09-15.562 13.098C-.831 24.105 7.113 32 16.05 32s16.399-7.443 15.929-16.2zM17.939 3.877l.677-.061c-.28.12-.551.245-.807.371-.018-.09-.031-.198-.048-.294l.178-.016zm-2.965.136c-.07.156-.138.306-.204.444a5.343 5.343 0 0 0-.484-.415l-.013-.009c.233-.009.467-.015.701-.02zM27.012 25.33c-2.69 3.044-6.603 4.954-10.962 4.957-4.27 0-8.512-2.025-11.347-5.417-2.298-2.75-3.378-6.048-3.043-9.29.63-6.085 3.143-8.991 6.367-10.368 3.125-.621 6.064.52 6.064.52S7.41 3.954 4.79 13.153c3.298-5.508 8.972-3.887 10.465-5.917 0 3.925 2.662 2.02 4.008 3.789 1.731 2.273 2.365 6.346 4.356 7.148-1.961-4.512 1.25-4.336-3.262-10.391 2.377 1.582 3.61-.02 6.855 1.407-2.777-4.864-7.22-3.458-7.22-3.458s1.809-1.765 3.726-1.716c3.238.81 6.217 3.537 6.665 11.883.182 3.409-1.014 6.758-3.37 9.431z"/></symbol><symbol id="icon-play" viewBox="0 0 32 32"><path d="M7.381 29.181a1.332 1.332 0 0 0 1.382-.088l-.004.003 17.333-12a1.334 1.334 0 0 0 .004-2.189l-.004-.003-17.333-12a1.331 1.331 0 0 0-2.092 1.092v24.005c0 .51.287.953.707 1.178l.007.003zM9.333 6.545 22.99 16 9.333 25.455V6.546z"/></symbol><symbol id="icon-email" viewBox="0 0 32 32"><path d="M28.445 5.333H3.554c-.982 0-1.777.796-1.777 1.777v17.779c0 .982.796 1.777 1.777 1.777h24.89c.982 0 1.777-.796 1.777-1.777V7.11c0-.982-.796-1.777-1.777-1.777h-.001zm-1.369 19.556H5.031l6.223-6.436-1.28-1.236-6.417 6.64V8.462l11.049 10.995a1.773 1.773 0 0 0 2.506 0L28.445 8.186v15.556l-6.543-6.543-1.253 1.253 6.427 6.436zM4.72 7.111h22.284L15.857 18.196 4.72 7.111z"/></symbol><symbol id="icon-ellipse" viewBox="0 0 32 32"><path fill="#979797" d="M32 16c0 8.837-7.163 16-16 16S0 24.837 0 16 7.163 0 16 0s16 7.163 16 16z" style="fill:var(--color2,#979797)"/></symbol><symbol id="icon-arrow-up" viewBox="0 0 32 32"><path d="M4.27 20.733a.948.948 0 0 0 1.324 0l9.906-9.568 9.904 9.568a.95.95 0 0 0 1.324-.001.883.883 0 0 0 0-1.279L16.193 9.279a.993.993 0 0 0-1.384 0L4.274 19.453a.889.889 0 0 0-.2.993l-.002-.006c.047.11.115.21.202.293h-.003z"/></symbol><symbol id="icon-select"><path d="m12 14-4-4h8l-4 4Z"/></symbol><symbol id="icon-checked"><path d="m1.957 4.752-.069-.066-.069.065-.888.842-.076.072.076.073 3.496 3.334.069.066.069-.066 7.504-7.158.076-.073-.076-.072-.882-.841-.069-.066-.069.066-6.553 6.246-2.539-2.422Z"/></symbol></defs></svg>