<svg xmlns="http://www.w3.org/2000/svg" width="32" height="32" fill="none"><path fill="#2C2C2C" d="M31.979 15.8c-.647-12.05-6.457-13.811-11.14-13.812-1.184 0-2.295.113-3.233.2-.008-.547.014-1.134.1-1.783.001-.009-.002-.017-.003-.026l.003-.013c0-.202-.354-.366-.793-.366-.437 0-.791.164-.791.366-.12.653-.284 1.297-.49 1.926-6.18.04-14.32 1.09-15.562 13.098C-.831 24.105 7.113 32 16.05 32c8.937 0 16.399-7.443 15.929-16.2ZM17.939 3.877l.677-.061c-.28.12-.551.245-.807.371-.018-.09-.031-.198-.048-.294l.178-.016Zm-2.965.136c-.07.156-.138.306-.204.444a5.07 5.07 0 0 0-.497-.424c.233-.009.467-.015.701-.02ZM27.012 25.33a14.619 14.619 0 0 1-10.962 4.957c-4.27 0-8.512-2.025-11.347-5.417-2.298-2.75-3.378-6.048-3.043-9.29.63-6.085 3.143-8.991 6.367-10.368 3.125-.621 6.064.52 6.064.52S7.41 3.954 4.79 13.153c3.298-5.508 8.972-3.887 10.465-5.917 0 3.925 2.662 2.02 4.008 3.789 1.731 2.273 2.365 6.346 4.356 7.148-1.961-4.512 1.25-4.336-3.262-10.391 2.377 1.582 3.61-.02 6.855 1.407-2.777-4.864-7.22-3.458-7.22-3.458s1.809-1.765 3.726-1.716c3.238.81 6.217 3.537 6.665 11.883.182 3.409-1.014 6.758-3.37 9.431Z"/></svg>